<mxfile host="app.diagrams.net" modified="2023-03-17T03:29:37.604Z" agent="5.0 (Windows NT 10.0; Win64; x64) AppleWebKit/537.36 (KHTML, like Gecko) Chrome/104.0.0.0 Safari/537.36" etag="-z1rO5kjTr03NPMyD8Je" version="20.8.16" type="github">
  <diagram name="第 1 页" id="BswIt9UjBe5UcrXF_6dl">
    <mxGraphModel dx="1389" dy="549" grid="1" gridSize="10" guides="1" tooltips="1" connect="1" arrows="1" fold="1" page="0" pageScale="1" pageWidth="827" pageHeight="1169" math="0" shadow="0">
      <root>
        <mxCell id="0" />
        <mxCell id="1" parent="0" />
        <mxCell id="cAEdlz6pTDF4jk9mvGDk-84" value="" style="rounded=1;whiteSpace=wrap;html=1;dashed=1;labelBorderColor=none;strokeColor=#d6b656;fontFamily=Times New Roman;fontSize=15;fillColor=#fff2cc;strokeWidth=2;" vertex="1" parent="1">
          <mxGeometry x="480" y="262.5" width="190" height="430" as="geometry" />
        </mxCell>
        <mxCell id="cAEdlz6pTDF4jk9mvGDk-60" value="" style="rounded=0;whiteSpace=wrap;html=1;labelBorderColor=#6c8ebf;fontFamily=Times New Roman;fontSize=15;dashed=1;dashPattern=1 2;" vertex="1" parent="1">
          <mxGeometry x="250" y="740" width="220" height="430" as="geometry" />
        </mxCell>
        <mxCell id="cAEdlz6pTDF4jk9mvGDk-48" value="" style="rounded=0;whiteSpace=wrap;html=1;strokeColor=#d79b00;fontFamily=Comic Sans MS;fillColor=#ffe6cc;" vertex="1" parent="1">
          <mxGeometry x="154" y="910" width="526" height="180" as="geometry" />
        </mxCell>
        <mxCell id="cAEdlz6pTDF4jk9mvGDk-47" value="" style="rounded=0;whiteSpace=wrap;html=1;fontFamily=Comic Sans MS;" vertex="1" parent="1">
          <mxGeometry x="290" y="1240" width="180" height="360" as="geometry" />
        </mxCell>
        <mxCell id="cAEdlz6pTDF4jk9mvGDk-1" value="Mysql节点A&lt;br&gt;192.165.110.242&lt;br&gt;" style="fontColor=#0066CC;verticalAlign=top;verticalLabelPosition=bottom;labelPosition=center;align=center;html=1;outlineConnect=0;fillColor=#CCCCCC;strokeColor=#6881B3;gradientColor=none;gradientDirection=north;strokeWidth=2;shape=mxgraph.networks.storage;" vertex="1" parent="1">
          <mxGeometry x="510" y="312.5" width="80" height="100" as="geometry" />
        </mxCell>
        <mxCell id="cAEdlz6pTDF4jk9mvGDk-2" value="Mysql节点B&lt;br&gt;192.168.195.128&lt;br&gt;" style="fontColor=#0066CC;verticalAlign=top;verticalLabelPosition=bottom;labelPosition=center;align=center;html=1;outlineConnect=0;fillColor=#CCCCCC;strokeColor=#6881B3;gradientColor=none;gradientDirection=north;strokeWidth=2;shape=mxgraph.networks.storage;" vertex="1" parent="1">
          <mxGeometry x="510" y="542.5" width="80" height="100" as="geometry" />
        </mxCell>
        <mxCell id="cAEdlz6pTDF4jk9mvGDk-64" style="edgeStyle=orthogonalEdgeStyle;rounded=0;orthogonalLoop=1;jettySize=auto;html=1;strokeColor=#000000;strokeWidth=1;fontFamily=Times New Roman;fontSize=15;fontColor=#6881b3;fillColor=#F2CC8F;" edge="1" parent="1" source="cAEdlz6pTDF4jk9mvGDk-3" target="cAEdlz6pTDF4jk9mvGDk-62">
          <mxGeometry relative="1" as="geometry">
            <Array as="points">
              <mxPoint x="190" y="477" />
              <mxPoint x="190" y="477" />
            </Array>
          </mxGeometry>
        </mxCell>
        <mxCell id="cAEdlz6pTDF4jk9mvGDk-3" value="用户端程序" style="fontColor=#0066CC;verticalAlign=top;verticalLabelPosition=bottom;labelPosition=center;align=center;html=1;outlineConnect=0;fillColor=#CCCCCC;strokeColor=#6881B3;gradientColor=none;gradientDirection=north;strokeWidth=2;shape=mxgraph.networks.pc;" vertex="1" parent="1">
          <mxGeometry x="-20" y="435" width="121.43" height="85" as="geometry" />
        </mxCell>
        <mxCell id="cAEdlz6pTDF4jk9mvGDk-4" value="后端服务程序&lt;br&gt;192.165.110.242&lt;br&gt;" style="fontColor=#0066CC;verticalAlign=top;verticalLabelPosition=bottom;labelPosition=center;align=center;html=1;outlineConnect=0;fillColor=#CCCCCC;strokeColor=#6881B3;gradientColor=none;gradientDirection=north;strokeWidth=2;shape=mxgraph.networks.server;" vertex="1" parent="1">
          <mxGeometry x="180" y="317.5" width="81" height="90" as="geometry" />
        </mxCell>
        <mxCell id="cAEdlz6pTDF4jk9mvGDk-23" value="" style="endArrow=classic;startArrow=classic;html=1;rounded=0;strokeColor=#6c8ebf;fontColor=#99004D;fillColor=#dae8fc;strokeWidth=1;edgeStyle=orthogonalEdgeStyle;entryX=1;entryY=0.5;entryDx=0;entryDy=0;entryPerimeter=0;exitX=1;exitY=0.5;exitDx=0;exitDy=0;exitPerimeter=0;dashed=1;dashPattern=8 8;" edge="1" parent="1" source="cAEdlz6pTDF4jk9mvGDk-2" target="cAEdlz6pTDF4jk9mvGDk-1">
          <mxGeometry width="50" height="50" relative="1" as="geometry">
            <mxPoint x="500" y="512.5" as="sourcePoint" />
            <mxPoint x="550" y="462.5" as="targetPoint" />
            <Array as="points">
              <mxPoint x="630" y="592.5" />
              <mxPoint x="630" y="362.5" />
            </Array>
          </mxGeometry>
        </mxCell>
        <mxCell id="cAEdlz6pTDF4jk9mvGDk-59" value="互为主从&lt;br&gt;双主热备" style="edgeLabel;html=1;align=center;verticalAlign=middle;resizable=0;points=[];fontSize=15;fontFamily=Times New Roman;fontColor=#4F9BFF;labelBorderColor=none;labelBackgroundColor=#FFF2CC;" vertex="1" connectable="0" parent="cAEdlz6pTDF4jk9mvGDk-23">
          <mxGeometry x="0.0677" y="3" relative="1" as="geometry">
            <mxPoint x="3" y="11" as="offset" />
          </mxGeometry>
        </mxCell>
        <mxCell id="cAEdlz6pTDF4jk9mvGDk-33" value="Mysql节点A&lt;br&gt;192.165.110.242&lt;br&gt;" style="fontColor=#0066CC;verticalAlign=middle;verticalLabelPosition=middle;labelPosition=right;align=left;html=1;outlineConnect=0;fillColor=#CCCCCC;strokeColor=#6881B3;gradientColor=none;gradientDirection=north;strokeWidth=2;shape=mxgraph.networks.storage;" vertex="1" parent="1">
          <mxGeometry x="480" y="950" width="80" height="100" as="geometry" />
        </mxCell>
        <mxCell id="cAEdlz6pTDF4jk9mvGDk-34" value="Mysql节点B&lt;br&gt;192.168.195.128&lt;br&gt;" style="fontColor=#0066CC;verticalAlign=top;verticalLabelPosition=bottom;labelPosition=center;align=center;html=1;outlineConnect=0;fillColor=#CCCCCC;strokeColor=#6881B3;gradientColor=none;gradientDirection=north;strokeWidth=2;shape=mxgraph.networks.storage;" vertex="1" parent="1">
          <mxGeometry x="339.5" y="1440" width="81" height="110" as="geometry" />
        </mxCell>
        <mxCell id="cAEdlz6pTDF4jk9mvGDk-36" value="用户端程序" style="fontColor=#0066CC;verticalAlign=top;verticalLabelPosition=bottom;labelPosition=center;align=center;html=1;outlineConnect=0;fillColor=#CCCCCC;strokeColor=#6881B3;gradientColor=none;gradientDirection=north;strokeWidth=2;shape=mxgraph.networks.pc;" vertex="1" parent="1">
          <mxGeometry x="-30" y="1100" width="121.43" height="85" as="geometry" />
        </mxCell>
        <mxCell id="cAEdlz6pTDF4jk9mvGDk-37" style="edgeStyle=none;rounded=0;orthogonalLoop=1;jettySize=auto;html=1;strokeColor=#6c8ebf;strokeWidth=2;fontFamily=Comic Sans MS;fontColor=#6881b3;fillColor=#dae8fc;dashed=1;" edge="1" parent="1" source="cAEdlz6pTDF4jk9mvGDk-39" target="cAEdlz6pTDF4jk9mvGDk-33">
          <mxGeometry relative="1" as="geometry" />
        </mxCell>
        <mxCell id="cAEdlz6pTDF4jk9mvGDk-39" value="后端服务程序&lt;br&gt;192.165.110.242&lt;br&gt;" style="fontColor=#0066CC;verticalAlign=top;verticalLabelPosition=bottom;labelPosition=center;align=center;html=1;outlineConnect=0;fillColor=#CCCCCC;strokeColor=#6881B3;gradientColor=none;gradientDirection=north;strokeWidth=2;shape=mxgraph.networks.server;" vertex="1" parent="1">
          <mxGeometry x="199" y="955" width="81" height="90" as="geometry" />
        </mxCell>
        <mxCell id="cAEdlz6pTDF4jk9mvGDk-41" style="edgeStyle=orthogonalEdgeStyle;rounded=0;orthogonalLoop=1;jettySize=auto;html=1;entryX=1;entryY=0.5;entryDx=0;entryDy=0;entryPerimeter=0;strokeColor=#6c8ebf;strokeWidth=2;fontFamily=Comic Sans MS;fontColor=#6881b3;fillColor=#dae8fc;exitX=1;exitY=0.5;exitDx=0;exitDy=0;exitPerimeter=0;" edge="1" parent="1" source="cAEdlz6pTDF4jk9mvGDk-42" target="cAEdlz6pTDF4jk9mvGDk-34">
          <mxGeometry relative="1" as="geometry">
            <Array as="points">
              <mxPoint x="450.5" y="1310" />
              <mxPoint x="450.5" y="1495" />
            </Array>
          </mxGeometry>
        </mxCell>
        <mxCell id="cAEdlz6pTDF4jk9mvGDk-42" value="后端服务程序&lt;br&gt;192.168.195.128" style="fontColor=#0066CC;verticalAlign=top;verticalLabelPosition=bottom;labelPosition=center;align=center;html=1;outlineConnect=0;fillColor=#CCCCCC;strokeColor=#6881B3;gradientColor=none;gradientDirection=north;strokeWidth=2;shape=mxgraph.networks.server;" vertex="1" parent="1">
          <mxGeometry x="339.5" y="1265" width="81" height="90" as="geometry" />
        </mxCell>
        <mxCell id="cAEdlz6pTDF4jk9mvGDk-46" value="虚拟IP&lt;br&gt;192.165.110.200" style="fontColor=#0066CC;verticalAlign=top;verticalLabelPosition=bottom;labelPosition=center;align=center;html=1;outlineConnect=0;fillColor=#CCCCCC;strokeColor=#6881B3;gradientColor=none;gradientDirection=north;strokeWidth=2;shape=mxgraph.networks.virtual_server;fontFamily=Comic Sans MS;" vertex="1" parent="1">
          <mxGeometry x="109" y="1300" width="90" height="100" as="geometry" />
        </mxCell>
        <mxCell id="cAEdlz6pTDF4jk9mvGDk-49" value="" style="rounded=0;whiteSpace=wrap;html=1;fontFamily=Comic Sans MS;" vertex="1" parent="1">
          <mxGeometry x="-140" y="1240" width="180" height="360" as="geometry" />
        </mxCell>
        <mxCell id="cAEdlz6pTDF4jk9mvGDk-50" value="Mysql节点B&lt;br&gt;192.168.195.128&lt;br&gt;" style="fontColor=#0066CC;verticalAlign=top;verticalLabelPosition=bottom;labelPosition=center;align=center;html=1;outlineConnect=0;fillColor=#CCCCCC;strokeColor=#6881B3;gradientColor=none;gradientDirection=north;strokeWidth=2;shape=mxgraph.networks.storage;" vertex="1" parent="1">
          <mxGeometry x="-90.5" y="1440" width="81" height="110" as="geometry" />
        </mxCell>
        <mxCell id="cAEdlz6pTDF4jk9mvGDk-51" style="edgeStyle=orthogonalEdgeStyle;rounded=0;orthogonalLoop=1;jettySize=auto;html=1;entryX=0;entryY=0.5;entryDx=0;entryDy=0;entryPerimeter=0;strokeColor=#6c8ebf;strokeWidth=2;fontFamily=Comic Sans MS;fontColor=#6881b3;fillColor=#dae8fc;exitX=0;exitY=0.5;exitDx=0;exitDy=0;exitPerimeter=0;" edge="1" parent="1" source="cAEdlz6pTDF4jk9mvGDk-52" target="cAEdlz6pTDF4jk9mvGDk-50">
          <mxGeometry relative="1" as="geometry">
            <Array as="points">
              <mxPoint x="-119.5" y="1310" />
              <mxPoint x="-119.5" y="1495" />
            </Array>
          </mxGeometry>
        </mxCell>
        <mxCell id="cAEdlz6pTDF4jk9mvGDk-52" value="后端服务程序&lt;br&gt;192.168.195.128" style="fontColor=#0066CC;verticalAlign=top;verticalLabelPosition=bottom;labelPosition=center;align=center;html=1;outlineConnect=0;fillColor=#CCCCCC;strokeColor=#6881B3;gradientColor=none;gradientDirection=north;strokeWidth=2;shape=mxgraph.networks.server;" vertex="1" parent="1">
          <mxGeometry x="-90.5" y="1265" width="81" height="90" as="geometry" />
        </mxCell>
        <mxCell id="cAEdlz6pTDF4jk9mvGDk-54" value="" style="endArrow=classic;startArrow=classic;html=1;rounded=0;strokeColor=#6c8ebf;strokeWidth=2;fontFamily=Comic Sans MS;fontColor=#6881b3;fillColor=#dae8fc;exitX=1;exitY=0.5;exitDx=0;exitDy=0;exitPerimeter=0;" edge="1" parent="1" source="cAEdlz6pTDF4jk9mvGDk-50" target="cAEdlz6pTDF4jk9mvGDk-34">
          <mxGeometry width="50" height="50" relative="1" as="geometry">
            <mxPoint x="250" y="1370" as="sourcePoint" />
            <mxPoint x="300" y="1320" as="targetPoint" />
          </mxGeometry>
        </mxCell>
        <mxCell id="cAEdlz6pTDF4jk9mvGDk-55" value="&lt;p style=&quot;line-height: 120%; font-size: 15px;&quot;&gt;主主模式、双主热备&lt;/p&gt;" style="edgeLabel;html=1;align=center;verticalAlign=middle;resizable=0;points=[];fontFamily=Times New Roman;fontColor=#6881b3;fontSize=15;fontStyle=1;spacing=2;spacingLeft=0;horizontal=1;" vertex="1" connectable="0" parent="cAEdlz6pTDF4jk9mvGDk-54">
          <mxGeometry x="-0.0735" relative="1" as="geometry">
            <mxPoint x="2" y="25" as="offset" />
          </mxGeometry>
        </mxCell>
        <mxCell id="cAEdlz6pTDF4jk9mvGDk-78" style="rounded=0;orthogonalLoop=1;jettySize=auto;html=1;strokeColor=#000000;strokeWidth=1;fontFamily=Times New Roman;fontSize=15;fontColor=#6881b3;fillColor=#F2CC8F;exitX=1;exitY=0.5;exitDx=0;exitDy=0;exitPerimeter=0;dashed=1;entryX=0;entryY=0.5;entryDx=0;entryDy=0;entryPerimeter=0;" edge="1" parent="1" source="cAEdlz6pTDF4jk9mvGDk-62" target="cAEdlz6pTDF4jk9mvGDk-1">
          <mxGeometry relative="1" as="geometry" />
        </mxCell>
        <mxCell id="cAEdlz6pTDF4jk9mvGDk-79" style="edgeStyle=none;rounded=0;orthogonalLoop=1;jettySize=auto;html=1;strokeColor=#000000;strokeWidth=1;fontFamily=Times New Roman;fontSize=15;fontColor=#6881b3;fillColor=#F2CC8F;exitX=1;exitY=0.5;exitDx=0;exitDy=0;exitPerimeter=0;dashed=1;entryX=0;entryY=0.5;entryDx=0;entryDy=0;entryPerimeter=0;" edge="1" parent="1" source="cAEdlz6pTDF4jk9mvGDk-62" target="cAEdlz6pTDF4jk9mvGDk-2">
          <mxGeometry relative="1" as="geometry" />
        </mxCell>
        <mxCell id="cAEdlz6pTDF4jk9mvGDk-62" value="虚拟IP&lt;br&gt;192.165.110.200" style="fontColor=#0066CC;verticalAlign=top;verticalLabelPosition=bottom;labelPosition=center;align=center;html=1;outlineConnect=0;fillColor=#CCCCCC;strokeColor=#6881B3;gradientColor=none;gradientDirection=north;strokeWidth=2;shape=mxgraph.networks.virtual_server;fontFamily=Comic Sans MS;" vertex="1" parent="1">
          <mxGeometry x="330.5" y="427.5" width="90" height="100" as="geometry" />
        </mxCell>
        <mxCell id="cAEdlz6pTDF4jk9mvGDk-77" value="后端服务程序&lt;br&gt;192.165.110.242&lt;br&gt;" style="fontColor=#0066CC;verticalAlign=top;verticalLabelPosition=bottom;labelPosition=center;align=center;html=1;outlineConnect=0;fillColor=#CCCCCC;strokeColor=#6881B3;gradientColor=none;gradientDirection=north;strokeWidth=2;shape=mxgraph.networks.server;" vertex="1" parent="1">
          <mxGeometry x="180" y="547.5" width="81" height="90" as="geometry" />
        </mxCell>
        <mxCell id="cAEdlz6pTDF4jk9mvGDk-82" value="" style="endArrow=classic;startArrow=classic;html=1;rounded=0;strokeColor=#000000;strokeWidth=1;fontFamily=Times New Roman;fontSize=15;fontColor=#080556;fillColor=#F2CC8F;exitX=1;exitY=0.5;exitDx=0;exitDy=0;exitPerimeter=0;entryX=0.01;entryY=0.01;entryDx=0;entryDy=0;entryPerimeter=0;" edge="1" parent="1" source="cAEdlz6pTDF4jk9mvGDk-4" target="cAEdlz6pTDF4jk9mvGDk-62">
          <mxGeometry width="50" height="50" relative="1" as="geometry">
            <mxPoint x="290" y="280" as="sourcePoint" />
            <mxPoint x="340" y="230" as="targetPoint" />
          </mxGeometry>
        </mxCell>
        <mxCell id="cAEdlz6pTDF4jk9mvGDk-83" value="" style="endArrow=classic;startArrow=classic;html=1;rounded=0;strokeColor=#000000;strokeWidth=1;fontFamily=Times New Roman;fontSize=15;fontColor=#080556;fillColor=#F2CC8F;exitX=1;exitY=0.5;exitDx=0;exitDy=0;exitPerimeter=0;entryX=0.01;entryY=0.99;entryDx=0;entryDy=0;entryPerimeter=0;" edge="1" parent="1" source="cAEdlz6pTDF4jk9mvGDk-77" target="cAEdlz6pTDF4jk9mvGDk-62">
          <mxGeometry width="50" height="50" relative="1" as="geometry">
            <mxPoint x="305.5" y="417.5" as="sourcePoint" />
            <mxPoint x="360.89999999999964" y="438.5" as="targetPoint" />
          </mxGeometry>
        </mxCell>
      </root>
    </mxGraphModel>
  </diagram>
</mxfile>
